<svg width="260" height="260" viewBox="0 0 260 260" fill="none" xmlns="http://www.w3.org/2000/svg">
<path d="M0 130C0 58.203 58.203 0 130 0C201.797 0 260 58.203 260 130C260 201.797 201.797 260 130 260C58.203 260 0 201.797 0 130Z" fill="#D9D9D9"/>
<path d="M123.425 112.375H98.5384C98.0838 109.155 97.1558 106.295 95.7543 103.795C94.3528 101.258 92.5535 99.0985 90.3565 97.3182C88.1596 95.5379 85.6217 94.1742 82.7429 93.2273C79.902 92.2803 76.8149 91.8068 73.4815 91.8068C67.4588 91.8068 62.2126 93.303 57.7429 96.2955C53.2732 99.25 49.8073 103.568 47.3452 109.25C44.8831 114.894 43.652 121.75 43.652 129.818C43.652 138.114 44.8831 145.083 47.3452 150.727C49.8452 156.371 53.33 160.633 57.7997 163.511C62.2694 166.39 67.4399 167.83 73.3111 167.83C76.6065 167.83 79.6558 167.394 82.4588 166.523C85.2997 165.652 87.8187 164.383 90.0156 162.716C92.2126 161.011 94.0308 158.947 95.4702 156.523C96.9474 154.098 97.9702 151.333 98.5384 148.227L123.425 148.341C122.781 153.682 121.171 158.833 118.595 163.795C116.057 168.72 112.629 173.133 108.311 177.034C104.031 180.898 98.9171 183.966 92.9702 186.239C87.0611 188.473 80.3755 189.591 72.9134 189.591C62.5346 189.591 53.2543 187.242 45.0724 182.545C36.9285 177.848 30.4891 171.049 25.7543 162.148C21.0573 153.246 18.7088 142.47 18.7088 129.818C18.7088 117.129 21.0952 106.333 25.8679 97.4318C30.6406 88.5303 37.1179 81.75 45.2997 77.0909C53.4815 72.3939 62.6861 70.0455 72.9134 70.0455C79.6558 70.0455 85.9058 70.9924 91.6634 72.8864C97.4588 74.7803 102.591 77.5455 107.061 81.1818C111.531 84.7803 115.167 89.1932 117.97 94.4205C120.811 99.6477 122.629 105.633 123.425 112.375ZM182.317 188H141.067V71.6364H182.658C194.362 71.6364 204.438 73.9659 212.885 78.625C221.332 83.2462 227.828 89.8939 232.374 98.5682C236.957 107.242 239.249 117.621 239.249 129.705C239.249 141.826 236.957 152.242 232.374 160.955C227.828 169.667 221.294 176.352 212.771 181.011C204.286 185.67 194.135 188 182.317 188ZM165.669 166.92H181.294C188.567 166.92 194.684 165.633 199.646 163.057C204.646 160.443 208.396 156.409 210.896 150.955C213.434 145.462 214.703 138.379 214.703 129.705C214.703 121.106 213.434 114.08 210.896 108.625C208.396 103.17 204.665 99.1553 199.703 96.5795C194.741 94.0038 188.624 92.7159 181.351 92.7159H165.669V166.92Z" fill="black"/>
</svg>
